<svg width="18" height="18" viewBox="0 0 18 18" fill="none" xmlns="http://www.w3.org/2000/svg">
<path fill-rule="evenodd" clip-rule="evenodd" d="M17.7604 1.39672C18.0799 1.07721 18.0799 0.559166 17.7604 0.23965C17.4409 -0.0798832 16.9228 -0.0798832 16.6032 0.23965L9 7.84291L1.39672 0.23965C1.07721 -0.0798832 0.559166 -0.0798832 0.23965 0.23965C-0.0798832 0.559166 -0.0798832 1.07721 0.23965 1.39672L7.84291 9L0.23965 16.6032C-0.0798832 16.9228 -0.0798832 17.4409 0.23965 17.7604C0.559166 18.0799 1.07721 18.0799 1.39672 17.7604L9 10.1571L16.6032 17.7604C16.9228 18.0799 17.4409 18.0799 17.7604 17.7604C18.0799 17.4409 18.0799 16.9228 17.7604 16.6032L10.1571 9L17.7604 1.39672Z" fill="black"/>
</svg>
