<svg width="1817" height="1770" viewBox="0 0 1817 1770" fill="none" xmlns="http://www.w3.org/2000/svg">
<path d="M1606.15 890.93H1816.33" stroke="black" stroke-width="111.994"/>
<path d="M0.539062 890.93H1158.19" stroke="black" stroke-width="111.994"/>
<path d="M704.604 292.516H1816.33" stroke="black" stroke-width="111.994"/>
<path d="M0.539062 292.516H257.379" stroke="black" stroke-width="111.994"/>
<path d="M1020.43 1489.36H1816.33" stroke="black" stroke-width="111.994"/>
<path d="M0.539062 1489.36H572.456" stroke="black" stroke-width="111.994"/>
<path d="M480.999 504.929C604.704 504.929 704.987 404.646 704.987 280.941C704.987 157.235 604.704 56.9521 480.999 56.9521C357.293 56.9521 257.01 157.235 257.01 280.941C257.01 404.646 357.293 504.929 480.999 504.929Z" stroke="black" stroke-width="111.994"/>
<path d="M1382.17 1114.92C1505.87 1114.92 1606.15 1014.64 1606.15 890.93C1606.15 767.224 1505.87 666.941 1382.17 666.941C1258.46 666.941 1158.18 767.224 1158.18 890.93C1158.18 1014.64 1258.46 1114.92 1382.17 1114.92Z" stroke="black" stroke-width="111.994"/>
<path d="M796.438 1713.35C920.143 1713.35 1020.43 1613.07 1020.43 1489.36C1020.43 1365.66 920.143 1265.37 796.438 1265.37C672.732 1265.37 572.449 1365.66 572.449 1489.36C572.449 1613.07 672.732 1713.35 796.438 1713.35Z" stroke="black" stroke-width="111.994"/>
</svg>
