<svg width="16" height="16" viewBox="0 0 6 6" fill="none" xmlns="http://www.w3.org/2000/svg">
<path d="M4.8916 2.71001H3.6416V1.46001C3.6416 1.40476 3.61965 1.35177 3.58058 1.3127C3.54151 1.27363 3.48852 1.25168 3.43327 1.25168C3.37801 1.25168 3.32502 1.27363 3.28595 1.3127C3.24688 1.35177 3.22493 1.40476 3.22493 1.46001V2.71001H1.97493C1.91968 2.71001 1.86669 2.73196 1.82762 2.77103C1.78855 2.8101 1.7666 2.86309 1.7666 2.91835C1.7666 2.9736 1.78855 3.02659 1.82762 3.06566C1.86669 3.10473 1.91968 3.12668 1.97493 3.12668H3.22493V4.37668C3.22493 4.43193 3.24688 4.48492 3.28595 4.52399C3.32502 4.56306 3.37801 4.58501 3.43327 4.58501C3.48852 4.58501 3.54151 4.56306 3.58058 4.52399C3.61965 4.48492 3.6416 4.43193 3.6416 4.37668V3.12668H4.8916C4.94685 3.12668 4.99985 3.10473 5.03892 3.06566C5.07799 3.02659 5.09993 2.9736 5.09993 2.91835C5.09993 2.86309 5.07799 2.8101 5.03892 2.77103C4.99985 2.73196 4.94685 2.71001 4.8916 2.71001Z" fill="#231F20"/>
</svg>
