<svg width="25" height="24" viewBox="0 0 25 24" fill="none" xmlns="http://www.w3.org/2000/svg">
    <path d="M12.3971 13.7081C12.3747 13.7081 12.3412 13.7081 12.3189 13.7081C12.2854 13.7081 12.2408 13.7081 12.2073 13.7081C9.67331 13.6299 7.77563 11.6541 7.77563 9.22063C7.77563 6.7425 9.7961 4.72205 12.2743 4.72205C14.7524 4.72205 16.7729 6.7425 16.7729 9.22063C16.7617 11.6653 14.8529 13.6299 12.4306 13.7081C12.4082 13.7081 12.4082 13.7081 12.3971 13.7081ZM12.2631 6.38529C10.7003 6.38529 9.43889 7.65785 9.43889 9.20947C9.43889 10.7388 10.6333 11.9778 12.1515 12.0337C12.185 12.0225 12.2966 12.0225 12.4082 12.0337C13.904 11.9555 15.0761 10.7276 15.0873 9.20947C15.0873 7.65785 13.8259 6.38529 12.2631 6.38529Z" fill="#292D32" />
    <path d="M12.2635 24.0003C9.26072 24.0003 6.39188 22.884 4.17049 20.8524C3.96956 20.6738 3.88025 20.4059 3.90258 20.1491C4.0477 18.8207 4.87374 17.5817 6.24677 16.6663C9.57328 14.4561 14.9649 14.4561 18.2802 16.6663C19.6533 17.5928 20.4793 18.8207 20.6244 20.1491C20.6579 20.417 20.5575 20.6738 20.3565 20.8524C18.1351 22.884 15.2663 24.0003 12.2635 24.0003ZM5.65514 19.9259C7.50816 21.4775 9.84118 22.3258 12.2635 22.3258C14.6858 22.3258 17.0188 21.4775 18.8719 19.9259C18.6709 19.2449 18.1351 18.5863 17.3426 18.0505C14.5965 16.2198 9.94165 16.2198 7.17328 18.0505C6.38072 18.5863 5.85607 19.2449 5.65514 19.9259Z" fill="#292D32" />
    <path d="M12.2625 23.9999C5.64292 23.9999 0.262451 18.6194 0.262451 11.9999C0.262451 5.38044 5.64292 0 12.2625 0C18.882 0 24.2625 5.38044 24.2625 11.9999C24.2625 18.6194 18.882 23.9999 12.2625 23.9999ZM12.2625 1.67441C6.56943 1.67441 1.93687 6.30695 1.93687 11.9999C1.93687 17.6929 6.56943 22.3255 12.2625 22.3255C17.9555 22.3255 22.588 17.6929 22.588 11.9999C22.588 6.30695 17.9555 1.67441 12.2625 1.67441Z" fill="#292D32" />
</svg>